<?xml version="1.0" encoding="utf-8"?>
<!-- Generator: Adobe Illustrator 25.0.1, SVG Export Plug-In . SVG Version: 6.00 Build 0)  -->
<svg version="1.1" id="Ebene_1" xmlns="http://www.w3.org/2000/svg" xmlns:xlink="http://www.w3.org/1999/xlink" x="0px" y="0px"
	 viewBox="0 0 512 512" style="enable-background:new 0 0 512 512;" xml:space="preserve">
<style type="text/css">
	.st0{fill:#FFFFFF;}
</style>
<g>
	<path class="st0" d="M283.6,492.9h-55.2c-0.9,0-1.4-1-0.9-1.8c1.2-2,1.6-4.2,1.6-6.7c-0.1-28.5-0.1-57,0-85.5
		c0-9.3-3-17.2-9.4-23.9c-8.7-9.2-17.3-18.5-25.9-27.7c-18.3-19.6-36.6-39.2-54.9-58.8c-5.3-5.7-10.6-11.5-16.1-17.1
		c-4.4-4.5-9.8-5.6-15.6-3.3c-5.6,2.2-7.9,6.8-8.1,12.6c-0.1,3.3,0.1,6.7-0.1,10c-0.2,3.6,1.1,6.4,3.3,9.1
		c11.8,14.9,23.5,29.8,35.2,44.7c4,5.1,8,10.3,12,15.3c1.3,1.6,1.5,2.6-0.2,4.1c-2.2,1.9-3.4,1.3-5-0.8
		c-26.9-34.4-53.8-68.7-80.8-102.9c-1.9-2.4-2.5-4.9-2.5-7.8c0.1-32.2,0-64.3,0-96.5c0-1.7,0.1-3.3-0.1-5
		c-0.8-10.6-8.6-18.6-19.1-19.8c-9.5-1-18.6,5.1-21.8,14.7c-0.3,0.8-0.7,1.5-1,2.2c0-41.4,0-82.9-0.1-124.3c0-2.6,2.1-4.7,4.7-4.7
		c58.1,0.1,116.2,0.1,174.3,0.1c-1.1,0.4-2.1,0.8-3.2,1.1c-14.8,3.1-26.9,10.3-35.9,22.5c-17.9,24.3-15.7,58.2,6.7,79.1
		c27.7,25.9,56.1,51.1,84.1,76.7c5.5,5,7.1,5,12.6,0c27.3-24.9,54.6-49.8,82-74.6c9.9-9,16.5-19.8,19.4-32.9
		c6.4-29.2-10.7-62.4-43.6-70c-2.1-0.5-4.1-1.2-6.1-1.8c58.4,0,116.8,0,175.2-0.1c3,0,3.9,0.6,3.9,3.8c-0.1,41.8-0.1,83.5-0.1,125.3
		c-0.4-1-0.9-2.1-1.3-3.1c-3.8-10.2-14.4-15.7-25-13c-9.9,2.6-15.8,10.5-15.8,21.5c0,33,0,66,0,99c0,3.2-0.7,5.7-2.8,8.2
		c-4.3,5.1-8.2,10.5-12.3,15.7c-22.8,29.1-45.7,58.1-68.5,87.2c-1.4,1.7-2.3,2.4-4.2,0.7c-1.7-1.4-2.5-2.5-0.6-4.3
		c0.7-0.7,1.2-1.6,1.8-2.4c15.2-19.4,30.5-38.7,45.6-58.1c1.5-1.9,2.6-4.4,2.9-6.7c0.4-4.3,0.4-8.7,0.1-13
		c-0.7-9.6-9.8-15.4-18.7-11.5c-2.8,1.2-5.2,3.5-7.4,5.8c-10.7,11.4-21.3,22.9-32,34.4c-21,22.5-42.1,45-63.1,67.5
		c-5.8,6.2-8.7,13.6-8.7,22.2c0.1,28.8,0.1,57.6,0,86.5c0,2.5,0.4,4.8,1.6,6.7C285,491.9,284.5,492.9,283.6,492.9z M410.9,196
		c0,20.6,0.1,41.3,0,61.9c0,4,0.8,7.4,3.8,10.4c1.5,1.5,2.4,3.6,3.2,5.5c2.8,6.3,6.7,6.9,11,1.4c4.1-5.1,7.8-10.4,12.1-15.3
		c2.9-3.4,4.1-6.9,4-11.4c-0.1-37.8-0.1-75.6-0.1-113.4c0-1.5,0.1-3-0.1-4.5c-1.3-11.5-12.2-18.5-22.9-14.6c-6.9,2.5-11,8.9-11,17.4
		C410.9,154.4,410.9,175.2,410.9,196z M101.1,196.2c0-21.1,0.1-42.3,0-63.4c-0.1-10.2-7.6-17.8-17.1-17.7
		c-9.3,0.1-16.8,7.6-16.8,17.5c-0.1,39.5-0.1,78.9,0,118.4c0,2.2,0.7,4.7,2,6.5c4.7,6.5,9.7,12.7,14.7,18.9c3.5,4.3,7.7,3.4,10-1.7
		c1-2.2,2-4.7,3.6-6.5c2.8-2.9,3.6-6.1,3.6-10C101,237.5,101.1,216.9,101.1,196.2z M141,223.5c0-14.3,0.1-28.6,0-42.9
		c-0.1-9.9-7.5-17.4-16.8-17.5c-9.3-0.1-17,7.3-17.1,17.2c-0.2,24.6-0.1,49.2,0,73.8c0,4.9,1.6,6.6,6.5,6.9
		c5.4,0.3,9.9,2.4,13.6,6.4c1.2,1.4,2.6,2.6,3.8,4c1.7,1.8,3.4,3.3,6.1,2.4c2.5-0.9,3.5-3,3.9-5.4c0.1-0.8,0.2-1.6,0.2-2.4
		C141.1,251.8,141.1,237.6,141,223.5z M370.9,223.1c0,13.8,0,27.6,0,41.4c0,0.6,0,1.2,0,1.9c0.4,8.4,5.5,10.2,11.1,3.9
		c0.8-0.9,1.6-1.8,2.4-2.6c3.4-3.6,7.5-6,12.5-6.5c7-0.7,8-1.7,8-8.6c0-23.5,0-46.9,0-70.4c0-1,0-2-0.1-3
		c-1.1-11.6-11.8-18.7-22.6-15c-7,2.4-11.3,8.7-11.4,17C370.9,195.1,370.9,209.1,370.9,223.1z M181,280.9c0-9.2,0-18.3,0-27.5
		c0-0.3,0-0.7,0-1c-0.4-9.9-7.7-17.4-17-17.4c-9.3,0-16.8,7.5-17,17.4c-0.2,10.7-0.2,21.4,0.1,32.1c0,2.2,1.3,5.3,2.7,6.9
		c6.9,7.7,14,15.2,21.1,22.8c1.6,1.8,3.3,3.5,6,2.5c2.7-1,3.6-3.3,4-5.9c0.2-1.3,0.1-2.7,0.1-4C181,298.2,181,289.5,181,280.9z
		 M331,281.1c0,9.6,0,19.3,0,28.9c0,2.7,0,5.5,3.2,6.6c2.9,1,5.1-0.3,7-2.5c7-7.6,14.1-15,21-22.7c1.4-1.5,2.7-3.7,2.7-5.6
		c0.2-11.6,0.5-23.3,0-34.9c-0.6-11.6-11.8-18.6-22.5-14.9c-6.7,2.3-11.2,8.7-11.3,16.6C330.9,262.2,331,271.7,331,281.1z"/>
	<path d="M286.5,492.9c-0.3,0-0.6-0.1-0.8-0.4c-2.1-2.3-2.7-5-2.7-8.2c0.1-28.8,0.1-57.6,0-86.5c0-8.6,2.9-15.9,8.7-22.2
		c21.1-22.5,42.1-45,63.1-67.5c10.7-11.4,21.2-23,32-34.4c2.1-2.3,4.6-4.6,7.4-5.8c8.9-3.8,18,1.9,18.7,11.5c0.3,4.3,0.4,8.7-0.1,13
		c-0.2,2.3-1.4,4.8-2.9,6.7c-15.1,19.4-30.4,38.8-45.6,58.1c-0.6,0.8-1.1,1.7-1.8,2.4c-1.9,1.8-1.1,2.9,0.6,4.3c2,1.7,2.9,1,4.2-0.7
		c22.8-29.1,45.6-58.2,68.5-87.2c4.1-5.2,8.1-10.6,12.3-15.7c2.1-2.5,2.8-5,2.8-8.2c-0.1-33-0.1-66,0-99c0-11.1,5.9-19,15.8-21.5
		c10.8-2.8,21.7,3.1,25.2,13.8c0.2,0.7,0.6,1.4,0.9,2.1c0.1,0.1,0.1,0.3,0.1,0.4l0,135.9c0,2.1-0.7,4.2-1.7,6.1c0,0,0,0,0,0
		c-13,23.9-26.1,47.7-39,71.7c-4.3,8-9.3,15.1-15.9,21.5c-17.7,17.3-35.1,35-52.7,52.5c-7,7-10.8,15.4-10.7,25.5
		c0,7.7-0.1,15.3,0.1,23c0.1,3.2-0.6,5.9-2.7,8.1c-0.2,0.2-0.5,0.4-0.8,0.4H286.5z"/>
	<path d="M19.1,149.3c0-0.8,0.2-1.7,0.5-2.4c0.2-0.4,0.4-0.9,0.6-1.3c3.3-9.5,12.3-15.5,21.7-14.4c10.5,1.1,18.3,9.2,19.1,19.8
		c0.1,1.7,0.1,3.3,0.1,5c0,32.2,0,64.3,0,96.5c0,3,0.6,5.4,2.5,7.8c27,34.3,53.9,68.6,80.8,102.9c1.7,2.1,2.8,2.7,5,0.8
		c1.7-1.5,1.5-2.5,0.2-4.1c-4.1-5-8-10.2-12-15.3c-11.7-14.9-23.4-29.9-35.2-44.7c-2.2-2.7-3.4-5.6-3.3-9.1c0.2-3.3,0-6.7,0.1-10
		c0.2-5.8,2.4-10.4,8.1-12.6c5.8-2.3,11.2-1.2,15.6,3.3c5.5,5.6,10.7,11.4,16.1,17.1c18.3,19.6,36.6,39.2,54.9,58.8
		c8.6,9.3,17.2,18.6,25.9,27.7c6.4,6.7,9.5,14.6,9.4,23.9c-0.1,28.5-0.1,57,0,85.5c0,0.1,0,0.2,0,0.3c0,4.6-3.8,8.2-8.4,8.2h-73.4
		c-4.6,0-8.5-3.8-8.4-8.4c0,0,0-0.1,0-0.1c0.2-7-0.1-14,0.1-21c0.3-11.3-3.7-20.6-11.8-28.6c-19.3-19.1-38.4-38.3-57.5-57.5
		c-1.8-1.9-3.6-4-4.8-6.3c-10.7-19.5-21.3-39.1-32-58.6c-4.2-7.6-8.5-15.1-12.8-22.7c-0.7-1.3-1.1-2.7-1.1-4.1
		C19.1,240.3,19.1,194.8,19.1,149.3z"/>
	<path d="M313.8,19.1c0.1,0,0.2,0,0.3,0c2,0.6,3.9,1.3,5.9,1.7c32.8,7.6,50,40.8,43.6,70c-2.9,13.1-9.4,23.9-19.4,32.9
		c-27.4,24.8-54.7,49.7-82,74.6c-5.5,5-7,5-12.6,0c-28.1-25.5-56.4-50.8-84.1-76.7c-22.4-20.9-24.6-54.8-6.7-79.1
		c9-12.2,21.2-19.4,35.9-22.5c1-0.2,2-0.6,3-1c0.1,0,0.3-0.1,0.4-0.1l13.5,0c0.2,0,0.3,0,0.5,0.1c0.5,0.3,1,0.6,1.5,0.7
		c11.1,1.7,20.9,6.1,29.5,13.5c3,2.6,6.2,5.1,9.2,7.8c2,1.8,5.1,1.7,7.1-0.1c2.2-2,4.6-3.8,6.8-5.8c8.2-7.4,17.5-12.5,28.3-14.8
		c1.7-0.4,3.4-0.9,5.1-1.3c0.1,0,0.2,0,0.3,0C304.7,19.1,309.2,19.1,313.8,19.1z"/>
	<path class="st0" d="M19.1,292.3c0-1.2,1.6-1.6,2.1-0.6c3.9,6.9,7.9,13.8,11.7,20.8c10.7,19.5,21.2,39.1,32,58.6
		c1.3,2.3,3,4.4,4.8,6.3c19.1,19.2,38.2,38.4,57.5,57.5c8,7.9,12.1,17.2,11.8,28.6c-0.2,7,0.1,14-0.1,21c-0.1,2.5,0.3,4.8,1.6,6.7
		c0.5,0.8,0,1.8-0.9,1.8c-38.6,0-77.3,0-115.9,0.1c-2.6,0-4.7-2.1-4.7-4.7C19.1,423,19.1,357.6,19.1,292.3z"/>
	<path class="st0" d="M372.4,492.9c-0.9,0-1.4-1-0.9-1.8c1.2-1.9,1.7-4.2,1.6-6.7c-0.2-7.6,0-15.3-0.1-23c0-10,3.7-18.4,10.7-25.5
		c17.5-17.5,34.9-35.2,52.7-52.5c6.5-6.4,11.6-13.5,15.9-21.5c12.8-24,25.9-47.8,39-71.7c0.5-0.8,1.1-1.5,1.7-2.3
		c0,66.8,0,133.5,0.1,200.3c0,2.6-2.1,4.7-4.7,4.7C449.6,492.9,411,492.9,372.4,492.9z"/>
	<path class="st0" d="M300,19.1c-1.7,0.5-3.5,1-5.2,1.3c-10.8,2.3-20.2,7.4-28.3,14.8c-2.2,2-4.6,3.8-6.8,5.8
		c-2,1.8-5.1,1.8-7.1,0.1c-3-2.6-6.1-5.2-9.2-7.8c-8.5-7.3-18.4-11.8-29.5-13.5c-0.6-0.1-1.2-0.5-1.8-0.8
		C241.3,19.1,270.7,19.1,300,19.1z"/>
	<path d="M410.9,196c0-20.8,0-41.6,0-62.4c0-8.5,4.1-14.9,11-17.4c10.7-3.9,21.6,3.1,22.9,14.6c0.2,1.5,0.1,3,0.1,4.5
		c0,37.8,0,75.6,0.1,113.4c0,4.4-1.1,8-4,11.4c-4.2,4.9-8,10.2-12.1,15.3c-4.4,5.5-8.3,4.9-11-1.4c-0.9-2-1.8-4.1-3.2-5.5
		c-3-3-3.8-6.4-3.8-10.4C411,237.3,410.9,216.6,410.9,196z"/>
	<path d="M101.1,196.2c0,20.6,0,41.3,0,61.9c0,3.9-0.8,7.1-3.6,10c-1.6,1.7-2.6,4.2-3.6,6.5c-2.4,5.1-6.5,6-10,1.7
		c-5.1-6.2-10-12.4-14.7-18.9c-1.3-1.7-2-4.3-2-6.5c-0.1-39.5-0.1-78.9,0-118.4c0-9.9,7.5-17.4,16.8-17.5c9.5-0.1,17,7.5,17.1,17.7
		C101.2,154,101.1,175.1,101.1,196.2z"/>
	<path d="M141.1,223.5c0,14.2,0,28.3,0,42.5c0,0.8,0,1.6-0.2,2.4c-0.4,2.4-1.4,4.5-3.9,5.4c-2.6,0.9-4.4-0.6-6.1-2.4
		c-1.2-1.3-2.6-2.6-3.8-4c-3.6-4-8.1-6.1-13.6-6.4c-4.9-0.3-6.5-2-6.5-6.9c-0.1-24.6-0.1-49.2,0-73.8c0.1-9.8,7.9-17.3,17.1-17.2
		c9.3,0.1,16.7,7.6,16.8,17.5C141.2,194.9,141,209.2,141.1,223.5z"/>
	<path d="M370.9,223.1c0-14-0.1-27.9,0-41.9c0-8.3,4.4-14.7,11.4-17c10.8-3.7,21.5,3.5,22.6,15c0.1,1,0.1,2,0.1,3
		c0,23.5,0,46.9,0,70.4c0,6.9-1,7.9-8,8.6c-5.1,0.5-9.1,3-12.5,6.5c-0.8,0.9-1.6,1.8-2.4,2.6c-5.6,6.3-10.6,4.5-11.1-3.9
		c0-0.6,0-1.2,0-1.9C370.9,250.7,370.9,236.9,370.9,223.1z"/>
	<path d="M181,280.9c0,8.7,0,17.3,0,26c0,1.3,0.1,2.7-0.1,4c-0.4,2.6-1.3,4.9-4,5.9c-2.7,1-4.4-0.7-6-2.5
		c-7-7.6-14.2-15.1-21.1-22.8c-1.4-1.6-2.7-4.8-2.7-6.9c-0.2-10.7-0.2-21.4-0.1-32.1c0.2-9.9,7.6-17.4,17-17.4
		c9.3,0,16.6,7.5,17,17.4c0,0.3,0,0.7,0,1C181,262.5,181,271.7,181,280.9z"/>
	<path d="M331,281.1c0-9.5-0.1-19,0-28.4c0.1-7.9,4.5-14.3,11.3-16.6c10.8-3.7,22,3.3,22.5,14.9c0.6,11.6,0.3,23.3,0,34.9
		c0,1.9-1.4,4.1-2.7,5.6c-6.9,7.7-14,15.1-21,22.7c-2,2.1-4.1,3.5-7,2.5c-3.2-1.1-3.2-3.9-3.2-6.6C331,300.4,331,290.8,331,281.1z"
		/>
</g>
</svg>
