<?xml version="1.0" encoding="utf-8"?>
<!-- Generator: Adobe Illustrator 25.0.1, SVG Export Plug-In . SVG Version: 6.00 Build 0)  -->
<svg version="1.1" id="Ebene_1" xmlns="http://www.w3.org/2000/svg" xmlns:xlink="http://www.w3.org/1999/xlink" x="0px" y="0px"
	 viewBox="0 0 512 512" style="enable-background:new 0 0 512 512;" xml:space="preserve">
<style type="text/css">
	.st0{fill:#FFFFFF;}
</style>
<g>
	<path class="st0" d="M0,366c0-73.6,0-147.3,0-221c170.7,0,341.3,0,512,0c0,0.6,0,1.3,0,1.9c-6.8,3.9-13.5,7.8-20.3,11.7
		c-6.9,4-13.8,8-20.7,12.1c-7.6,4.5-15.1,9-22.7,13.6c-4.1,2.5-8.2,5-12.4,7.5c-6.9,4.2-14.1,7.6-22.4,7.5
		c-4.3-0.1-8.6-0.4-12.9-0.8c-9.4-0.9-18.8-2.1-28.3-3c-9.3-0.9-17.6,1.7-25.7,6.3c-12.6,7.1-25.3,14.1-39.5,17.9
		c-2.9,0.8-5.7,1.9-8.4,3.1c-2.7,1.2-3,3-1,5.1c0.9,0.9,2,2,3.2,2.3c3.7,1,7.4,2.2,11.1,2.4c7.6,0.3,14.7-2.3,21.9-4.5
		c3.9-1.2,8.1-1.6,12.2-2.1c1.2-0.2,2.7-0.2,3.1,2c-3.1,1.8-6.2,3.7-9.3,5.5c-8.2,4.8-16.4,9.5-24.6,14.3
		c-7.5,4.4-14.9,8.8-22.4,13.2c-7.5,4.4-15,8.7-22.3,13.2c-4.3,2.6-5,5.5-2.8,10.1c0.4,0.9,0.9,1.8,1.4,2.6c1.5,2.5,3.7,3.2,6.4,2.7
		c1.4-0.3,2.9-0.9,4.2-1.6c9-5.1,17.9-10.3,26.8-15.5c8.5-5,16.9-10.1,25.3-15c2.5-1.4,3.8-1,5.2,0.9c1.2,1.8,0.9,3.2-1.6,4.9
		c-3.8,2.4-7.7,4.6-11.6,6.9c-14,8.3-28,16.7-42.1,25c-3.9,2.3-7.7,4.6-11.5,7c-1.8,1.1-3,2.7-3.1,4.9c-0.1,3.8,1.6,6.7,4.6,8.9
		c2.8,2.1,5.6,1.3,8.4-0.4c11.4-6.8,22.9-13.6,34.4-20.3c4.3-2.5,8.7-4.9,13-7.4c6.2-3.6,12.3-7.3,18.4-11c1.7-1,3.3-0.7,4.4,0.9
		c1.2,1.8,0.3,3.2-1.2,4.2c-3.2,2.1-6.3,4.3-9.6,6.3c-10.5,6.2-21,12.2-31.5,18.3c-6,3.5-12,7.1-18.1,10.5c-2.5,1.4-4.3,3.3-4.3,6.3
		c0,7.3,7.1,11.3,13.3,7.6c1.9-1.1,3.5-2.5,5.4-3.6c7.8-4.5,15.6-9,23.3-13.5c9.1-5.3,18.1-10.6,27.2-15.9c0.7-0.4,1.4-0.9,2.2-1.2
		c1.8-0.8,3.3,0,4.3,1.5c1,1.4,0.8,3-0.4,4.1c-1.1,1-2.4,1.8-3.7,2.5c-11.5,6.8-23,13.5-34.4,20.3c-1.2,0.7-2.4,1.8-3.2,3
		c-2.4,3.3-0.6,8.1,3.4,9.2c2.3,0.6,4.5,0.4,6.7-0.9c9.3-5.6,18.8-10.8,27.8-16.7c9.8-6.5,20.4-11.3,31.3-15.5
		c15.9-6.1,30-15,43-25.9c6-5.1,10.9-11.2,14.9-18c2.7-4.7,6-8.9,10.5-11.8c7.2-4.8,14.4-9.5,21.8-14c9.5-5.8,19.3-11.3,28.9-16.8
		c1.3-0.7,2.7-1.2,4.1-1.7c0,69,0,138,0,207.1c-170.7,0-341.3,0-512,0c0-0.7,0-1.3,0-2c1.8-0.2,3.6-0.3,5.4-0.7
		c20.8-3.7,41.6-7.6,62.5-11c7.5-1.2,15.3-1.5,22.6,2.1c1.6,0.8,3.5,1.1,5.3,1.4c7.6,1.4,15.2,1.3,22.8,1.2c9.6-0.1,18.8-2.2,28-4.5
		c7.4-1.9,14.5-4.9,22-6.6c12.2-2.7,24.5-4.7,36.8-7c4.1-0.8,8.2-1.4,12.3-2.2c3.5-0.7,5.4-3.3,5.2-6.9c-0.2-3.1-1.9-4.6-5.9-4.7
		c-2-0.1-4,0.1-6,0.5c-11.1,2-22.3,4-33.4,6c-1,0.2-2,0.3-3,0.2c-1.6-0.2-3.1-1-3-2.7c0.1-1.1,1-2.4,1.9-3.2c0.8-0.7,2.2-0.8,3.3-1
		c11.3-2,22.6-4,33.9-6c8.4-1.5,16.8-2.8,25.1-4.5c5-1,6.8-4,5.8-8.7c-1.2-5.4-4.5-7-8.9-6.2c-18.8,3.6-37.7,6.9-56.5,10.2
		c-2.1,0.4-4.3,0.9-6.4,0.8c-0.9,0-2.2-1.1-2.4-1.9c-0.2-0.9,0.4-2.3,1.1-2.9c0.8-0.7,2.1-0.8,3.3-1c16.2-3,32.4-5.9,48.6-8.8
		c6.2-1.1,12.5-2.1,18.7-3.3c3.1-0.6,5.7-1.9,6.5-5.4c1.4-6.2-2.9-11-9.3-10c-4.8,0.7-9.5,1.6-14.3,2.5c-16.7,3-33.4,6-50.2,8.9
		c-1.7,0.3-3.7,0.2-5.4-0.3c-0.8-0.2-1.7-1.6-1.8-2.6c-0.1-0.7,0.8-1.9,1.6-2.2c1.5-0.7,3.1-1.1,4.8-1.4c14.6-2.6,29.2-5,43.8-7.6
		c3.4-0.6,6.9-1.2,10.3-2.1c3.2-0.8,5-3.1,4.5-6.3c-0.8-5.6-1.8-7.9-5.2-8.8c-0.8-0.2-1.7-0.1-2.5,0c-1.8,0.2-3.6,0.5-5.4,0.9
		c-24.7,4.4-49.5,8.9-74.2,13.3c-1.4,0.2-2.8,0.1-4.2,0.2c-0.2-0.3-0.3-0.7-0.5-1c1.7-1.5,3.2-3.2,5.2-4.3c3.2-1.8,6.6-3.2,9.9-4.7
		c6.7-2.8,13-6.2,17.7-11.9c2.7-3.3,4.7-6.9,2.6-12c-2.1,0.6-4.1,1-6.1,1.6c-7.7,2.7-15.3,5.8-23.1,8.1c-7.3,2.2-14.8,3.8-22.3,5.3
		c-7.6,1.5-14.1,4.7-19.5,10.4c-7.9,8.4-15.8,16.7-23.9,24.9c-6.2,6.3-13.9,9.6-22.6,10.6c-2,0.2-4,0.5-5.9,0.9
		c-8,1.4-16.1,2.9-24.1,4.3C17,362.8,8.5,364.4,0,366z"/>
	<path d="M512,215.9c-1.4,0.6-2.8,1-4.1,1.7c-9.7,5.6-19.4,11.1-28.9,16.8c-7.4,4.5-14.6,9.2-21.8,14c-4.5,3-7.8,7.1-10.5,11.8
		c-3.9,6.8-8.8,12.9-14.9,18c-13,10.9-27.1,19.8-43,25.9c-10.9,4.2-21.4,9-31.3,15.5c-9,5.9-18.6,11.1-27.8,16.7
		c-2.2,1.3-4.4,1.6-6.7,0.9c-4-1.1-5.8-5.8-3.4-9.2c0.8-1.2,2-2.3,3.2-3c11.4-6.8,22.9-13.5,34.4-20.3c1.3-0.8,2.6-1.5,3.7-2.5
		c1.2-1.2,1.3-2.7,0.4-4.1c-1-1.5-2.5-2.2-4.3-1.5c-0.8,0.3-1.5,0.8-2.2,1.2c-9.1,5.3-18.1,10.6-27.2,15.9
		c-7.8,4.5-15.6,9-23.3,13.5c-1.9,1.1-3.6,2.5-5.4,3.6c-6.2,3.7-13.3-0.4-13.3-7.6c0-2.9,1.8-4.8,4.3-6.3c6.1-3.4,12.1-7,18.1-10.5
		c10.5-6.1,21-12.2,31.5-18.3c3.3-1.9,6.4-4.1,9.6-6.3c1.6-1,2.4-2.5,1.2-4.2c-1.1-1.6-2.7-1.9-4.4-0.9c-6.2,3.6-12.3,7.4-18.4,11
		c-4.3,2.5-8.7,4.9-13,7.4c-11.5,6.7-22.9,13.5-34.4,20.3c-2.8,1.7-5.6,2.5-8.4,0.4c-2.9-2.2-4.7-5.1-4.6-8.9
		c0.1-2.2,1.3-3.8,3.1-4.9c3.8-2.4,7.7-4.7,11.5-7c14-8.3,28-16.7,42.1-25c3.9-2.3,7.8-4.4,11.6-6.9c2.6-1.6,2.9-3,1.6-4.9
		c-1.3-1.9-2.7-2.3-5.2-0.9c-8.5,4.9-16.9,10.1-25.3,15c-8.9,5.2-17.8,10.4-26.8,15.5c-1.3,0.7-2.7,1.3-4.2,1.6
		c-2.7,0.6-5-0.1-6.4-2.7c-0.5-0.9-1-1.7-1.4-2.6c-2.3-4.6-1.6-7.5,2.8-10.1c7.4-4.5,14.9-8.8,22.3-13.2c7.5-4.4,14.9-8.8,22.4-13.2
		c8.2-4.8,16.4-9.5,24.6-14.3c3.1-1.8,6.2-3.7,9.3-5.5c-0.3-2.2-1.9-2.2-3.1-2c-4.1,0.5-8.3,0.9-12.2,2.1
		c-7.2,2.2-14.3,4.8-21.9,4.5c-3.7-0.2-7.5-1.4-11.1-2.4c-1.2-0.3-2.3-1.4-3.2-2.3c-2-2.1-1.6-3.9,1-5.1c2.7-1.2,5.5-2.3,8.4-3.1
		c14.2-3.8,26.9-10.8,39.5-17.9c8.1-4.6,16.5-7.2,25.7-6.3c9.4,0.9,18.9,2.1,28.3,3c4.3,0.4,8.6,0.8,12.9,0.8
		c8.3,0.1,15.5-3.4,22.4-7.5c4.1-2.5,8.2-5,12.4-7.5c7.6-4.5,15.1-9.1,22.7-13.6c6.9-4.1,13.8-8.1,20.7-12.1
		c6.8-3.9,13.5-7.8,20.3-11.7C512,169.9,512,192.9,512,215.9z"/>
	<path d="M0,366c8.5-1.6,17-3.2,25.5-4.8c8-1.5,16-2.9,24.1-4.3c2-0.3,3.9-0.6,5.9-0.9c8.7-1,16.4-4.3,22.6-10.6
		c8-8.2,16-16.5,23.9-24.9c5.4-5.7,11.9-8.9,19.5-10.4c7.5-1.5,15-3.1,22.3-5.3c7.8-2.3,15.4-5.4,23.1-8.1c1.9-0.7,4-1.1,6.1-1.6
		c2.1,5.1,0.1,8.7-2.6,12c-4.7,5.7-11,9.1-17.7,11.9c-3.4,1.4-6.8,2.9-9.9,4.7c-1.9,1.1-3.5,2.8-5.2,4.3c0.2,0.3,0.3,0.7,0.5,1
		c1.4-0.1,2.8,0,4.2-0.2c24.8-4.4,49.5-8.8,74.2-13.3c1.8-0.3,3.6-0.6,5.4-0.9c0.8-0.1,1.7-0.2,2.5,0c3.4,0.9,4.4,3.3,5.2,8.8
		c0.4,3.1-1.3,5.4-4.5,6.3c-3.4,0.9-6.8,1.5-10.3,2.1c-14.6,2.5-29.2,5-43.8,7.6c-1.6,0.3-3.3,0.7-4.8,1.4c-0.8,0.4-1.7,1.5-1.6,2.2
		c0.1,1,1,2.4,1.8,2.6c1.7,0.5,3.6,0.6,5.4,0.3c16.7-2.9,33.4-6,50.2-8.9c4.8-0.9,9.5-1.8,14.3-2.5c6.3-1,10.7,3.8,9.3,10
		c-0.8,3.4-3.4,4.8-6.5,5.4c-6.2,1.1-12.5,2.1-18.7,3.3c-16.2,2.9-32.4,5.9-48.6,8.8c-1.1,0.2-2.5,0.3-3.3,1
		c-0.7,0.6-1.3,2.1-1.1,2.9c0.2,0.8,1.6,1.9,2.4,1.9c2.1,0,4.3-0.5,6.4-0.8c18.8-3.4,37.7-6.6,56.5-10.2c4.4-0.8,7.8,0.7,8.9,6.2
		c1,4.7-0.8,7.7-5.8,8.7c-8.3,1.7-16.7,3-25.1,4.5c-11.3,2-22.6,4-33.9,6c-1.1,0.2-2.5,0.3-3.3,1c-0.9,0.7-1.8,2.1-1.9,3.2
		c-0.1,1.7,1.4,2.6,3,2.7c1,0.1,2,0,3-0.2c11.1-2,22.3-4.1,33.4-6c2-0.3,4-0.5,6-0.5c4,0.1,5.7,1.7,5.9,4.7c0.2,3.5-1.6,6.1-5.2,6.9
		c-4.1,0.9-8.2,1.5-12.3,2.2c-12.3,2.3-24.6,4.3-36.8,7c-7.4,1.7-14.6,4.7-22,6.6c-9.2,2.4-18.4,4.4-28,4.5
		c-7.7,0.1-15.3,0.2-22.8-1.2c-1.8-0.3-3.7-0.6-5.3-1.4c-7.3-3.6-15-3.3-22.6-2.1c-20.9,3.3-41.7,7.3-62.5,11
		c-1.8,0.3-3.6,0.4-5.4,0.7C0,402.7,0,384.3,0,366z"/>
</g>
</svg>
