<?xml version="1.0" encoding="utf-8"?>
<!-- Generator: Adobe Illustrator 25.0.1, SVG Export Plug-In . SVG Version: 6.00 Build 0)  -->
<svg version="1.1" id="Ebene_1" xmlns="http://www.w3.org/2000/svg" xmlns:xlink="http://www.w3.org/1999/xlink" x="0px" y="0px"
	 viewBox="0 0 512 512" style="enable-background:new 0 0 512 512;" xml:space="preserve">
<style type="text/css">
	.st0{fill:#FFFFFF;}
</style>
<g>
		<path d="M223,512c0-2.5,0.1-5,0.1-7.5c0-66.1,0-132.3,0-198.4c0-3.5,0.5-7,0.6-10.4c0.4-6.6-0.7-13-3.3-19c-2.1-5-4.8-9.9-8-14.4
		c-7.6-10.7-15.7-21.1-23.4-31.8c-3-4.2-5.9-8.5-8.3-13.1c-3.3-6.3-4.8-13-4.9-20.2c-0.1-23.9-2.6-47.5-8.1-70.8
		c-0.6-2.5-2-5.5,0.7-7.4c2.7-1.9,5.9-0.8,8.5,0.8c5.4,3.3,9.4,7.9,12.4,13.4c4.3,7.8,6.3,16.4,8.4,25c1.3,5.1,3.3,10.1,5.1,15.1
		c0.5,1.3,1.6,2.4,2.9,4.5c0.5-1.9,0.9-2.9,1-3.9c0.1-1.5,0.1-3,0.1-4.5c0-36.3,0.2-72.6-0.1-109c-0.1-10.8,4.3-14.1,14.3-13.3
		c5.8,0.4,8.3,3,8.7,8.8c0.1,1.7,0.1,3.3,0.1,5c0,24.2,0,48.3,0,72.5c0,2.1,0.2,4.3,0.6,6.4c0.4,2,1.9,3.2,4,3
		c2.2-0.1,3.1-1.7,3.3-3.7c0.1-1.7,0.1-3.3,0.1-5c0-29.3,0-58.7,0-88c0-1.5,0.1-3,0-4.5c-0.4-11.5,7.3-13.7,15.8-12.2
		c4.3,0.8,6.9,4,7.6,8.3c0.4,2.1,0.4,4.3,0.4,6.5c0,30.8,0,61.6,0,92.5c0,2-0.1,4.1,0.5,5.9c0.4,1.1,1.9,2.2,3.1,2.5
		c0.6,0.1,2.1-1.5,2.4-2.6c0.5-1.7,0.3-3.6,0.3-5.5c0-26.5,0-53,0-79.5c0-1.7-0.1-3.3,0.1-5c0.2-2.1,0.5-4.3,1.1-6.4
		c1.6-5.1,6-7,13.7-6.1c4.7,0.6,7.6,3.7,7.9,8.7c0.1,1.7,0.1,3.3,0.1,5c0,26.7,0,53.3,0,80c0,2,0,4,0.3,6c0.4,2.3,1.7,4,4.3,4
		c2.2,0,3.8-1.5,4.2-4.2c0.2-1.6,0.2-3.3,0.2-5c0-17.2,0-34.3,0.1-51.5c0-2.3,0.3-4.7,1.3-6.7c1.7-3.4,5.9-4.9,9.4-4.1
		c3.5,0.8,6.4,3.8,6.9,7.7c0.2,1.6,0.2,3.3,0.2,5c0,14.3,0.3,28.7-0.1,43c-0.4,14.6,1.3,28.9,3.4,43.3c0.9,6.4,1.2,12.9,1.7,19.4
		c0.3,3.6,0.9,7.3,0.8,10.9c-0.5,17.7-1.5,35.3-7.9,52.1c-1.8,4.7-3.7,9.3-6.2,13.6c-4.3,7.3-6,15.1-6.6,23.3c-0.2,3-0.1,6-0.1,9
		c0,68.6,0,137.3,0,205.9c0,2.2,0.1,4.3,0.1,6.5C276.3,512,249.7,512,223,512z"/>
	<path d="M72,512c0-26.3,0-52.7,0.2-79c0-5.1,0.9-10.3,0.6-15.4c-0.6-9.6-2.6-18.8-8.4-26.8c-9.3-12.6-18.5-25.2-27.7-37.9
		c-5.3-7.4-7.6-15.7-7.7-24.9c-0.3-21.5-2.7-42.9-7.6-63.8c-0.1-0.5-0.2-1-0.3-1.5c-0.4-2.2-1.8-4.7,0.4-6.6c2.4-2,5.2-0.9,7.5,0.2
		c2.1,1,4.2,2.3,5.7,4c5.6,6.3,9.6,13.6,11.4,21.9c1.4,6.2,2.9,12.3,4.8,18.4c1,3.2,3,6.2,4.5,9.3c0.5-0.1,0.9-0.1,1.4-0.2
		c0.1-1.7,0.4-3.4,0.4-5.1c0-17.3,0-34.7,0-52c0-17.2,0-34.3,0-51.5c0-10,5.7-14.1,15.3-11.3c3.2,0.9,5.3,2.9,5.9,6.1
		c0.4,2.3,0.5,4.6,0.5,6.9c0,22,0,44,0,66c0,1.5-0.1,3,0.1,4.5c0.2,3.1,1.4,4.5,3.6,4.4c2.1-0.1,3.2-1.5,3.4-4.6
		c0.1-1.5,0.1-3,0.1-4.5c0-26.8,0-53.7,0-80.5c0-1.2,0-2.3,0-3.5c0.1-9.5,5.9-13.9,15.1-11.3c2.9,0.8,5.1,2.6,5.7,5.7
		c0.6,2.9,0.9,5.9,0.9,8.9c0.1,28,0,56,0.1,84c0,1.8-0.1,3.7,0.4,5.5c0.2,0.9,1.5,2.2,2.2,2.1c1.1-0.1,2.7-1,3-1.9
		c0.6-1.8,0.6-3.9,0.6-5.9c0-24.2,0-48.3,0-72.5c0-1.5,0.1-3,0-4.5c-0.5-8.1,3.7-13.1,13.6-11.7c3.2,0.4,5.4,2,6.1,5.1
		c0.6,2.7,1.1,5.6,1.1,8.4c0.1,24.7,0,49.3,0.1,74c0,1.7,0,3.3,0.2,5c0.2,2.1,1.5,3.3,3.7,3.3c2.1-0.1,3.6-1,3.9-3.1
		c0.3-1.6,0.3-3.3,0.3-5c0-15,0-30,0-45c0-1.7-0.1-3.3,0.1-5c0.6-5.9,4.8-8.8,10.6-7.4c2.7,0.6,4.5,2.3,4.9,5
		c0.3,1.8,0.3,3.6,0.3,5.5c0,13.7,0.2,27.3,0,41c-0.2,12.4,1.3,24.6,3.2,36.8c2,12.3,3.1,24.8,2.7,37.3c-0.5,15.4-2.9,30.5-8.5,45
		c-1.4,3.7-3.4,7.2-5.4,10.7c-3.1,5.3-4.6,11-5,17.1c-2,33.5-0.4,67-0.9,100.4C120.7,512,96.3,512,72,512z"/>
	<path d="M368,512c-0.4-7.5-0.3-15-1.2-22.4c-0.5-4-2.5-7.9-4.5-11.5c-6.4-11.3-8.5-23.7-10.1-36.3c-2-15.6,0.1-30.9,2.4-46.2
		c0.9-6.1,1.4-12.3,1.5-18.4c0.2-13.8,0.1-27.7,0.1-41.5c0-1.7-0.1-3.3,0.1-5c0.5-4.7,2.7-6.7,7.1-6.7c4.4,0.1,6.6,2.2,6.7,6.9
		c0.2,8.7,0.1,17.3,0.1,26c0,5.7-0.1,11.3,0.1,17c0,1.6,0.2,3.4,0.9,4.8c0.5,0.9,2.2,1.8,3.2,1.7c1-0.1,2.3-1.4,2.6-2.5
		c0.5-1.7,0.4-3.6,0.4-5.5c0-20.5,0-41,0-61.5c0-2,0-4,0.3-6c0.9-5.2,3.9-7.3,9.7-7c4.6,0.2,7.2,2.7,7.7,7.5
		c0.2,1.8,0.1,3.7,0.1,5.5c0,20.8,0,41.7,0,62.5c0,1.8-0.1,3.7,0.3,5.5c0.3,1,1.5,2.3,2.5,2.5c1.8,0.4,2.7-1,2.9-2.7
		c0.2-1.8,0.2-3.7,0.2-5.5c0-23.3,0-46.7,0-70c0-1,0-2,0-3c0.1-9.3,2.7-11.5,11.9-10.3c3.2,0.4,4.9,1.8,5.5,4.9c0.4,1.9,0.4,4,0.4,6
		c0,23.7,0,47.3,0,71c0,1.8-0.1,3.7,0.4,5.4c0.3,1,1.7,2.2,2.7,2.3c1,0.1,2.6-1,2.9-2c0.7-2.2,0.9-4.6,0.9-6.9
		c0.1-18.2,0-36.3,0-54.5c0-1.5,0-3,0-4.5c0.2-5.7,3-8.4,8.8-8.4c5.6,0,8.9,2.9,9,8.4c0.2,6.2,0.1,12.3,0.1,18.5c0,23.5,0,47,0,70.5
		c0,1.9,0,3.9,0,5.8c0.4,0.1,0.7,0.2,1.1,0.3c0.7-0.8,1.8-1.4,2.1-2.3c1.6-4.2,3.2-8.4,4.6-12.6c1.6-5.2,2.8-10.6,4.6-15.8
		c1.5-4.7,4.4-8.6,8-11.9c1-0.9,2-1.8,3.2-2.4c2.2-1.2,4.6-2.7,7-0.9c2.3,1.7,1.1,4.3,0.6,6.5c-3.8,16.3-6.5,32.7-6.1,49.4
		c0.3,11.6-2.8,22-9.8,31.2c-7,9.3-14.1,18.6-20.8,28.1c-5.6,8.1-8.7,17.1-7.7,27.2c0.3,2.8,0.2,5.7,0.3,8.5
		C410,512,389,512,368,512z"/>
</g>
</svg>
