<?xml version="1.0" encoding="utf-8"?>
<!-- Generator: Adobe Illustrator 25.0.1, SVG Export Plug-In . SVG Version: 6.00 Build 0)  -->
<svg version="1.1" xmlns="http://www.w3.org/2000/svg" xmlns:xlink="http://www.w3.org/1999/xlink" x="0px" y="0px"
	 viewBox="0 0 252.4 273.5" style="enable-background:new 0 0 252.4 273.5;" xml:space="preserve">
<style type="text/css">
	.st0{display:none;}
	.st1{display:inline;fill:none;stroke:#1D1D1B;stroke-width:6;stroke-miterlimit:10;}
	.st2{display:inline;}
	.st3{fill:none;stroke:#1D1D1B;stroke-width:6;stroke-miterlimit:10;}
	.st4{fill:none;stroke:#1D1D1B;stroke-width:30;stroke-miterlimit:10;}
	.st5{fill:none;stroke:#1D1D1B;stroke-width:14;stroke-miterlimit:10;}
</style>
<g id="Ebene_1" class="st0">
	<path class="st1" d="M2.5,271.8l47.4-69.2l26.9,34.6l75.6-115.4l97.4,150"/>
	<path class="st1" d="M125.2,164l2.7,12.2l18.4-9.9l11.4,6.7l6-9.1l20.1,6.1"/>
	<path class="st1" d="M39.2,222.1l3.5,4.5l8-2.3l4,2.3l6-8"/>
	<path class="st1" d="M153.1,121.8v-18V52.6l45.7,30.6l-45.1,16.2"/>
	<path class="st1" d="M189.1,40.6"/>
	<path class="st1" d="M203.3,40.6l25.8-22.1"/>
	<path class="st1" d="M160.6,25.8V0"/>
	<path class="st1" d="M125.2,40.6l-22.1-22.1"/>
	<g id="LHsX6V_1_" class="st2">
		
			<image style="overflow:visible;" width="1000" height="1080" id="LHsX6V_3_" xlink:href="6BA76C25D6B7C454.jpg"  transform="matrix(0.2905 0 0 0.2905 -19.0587 -13.0983)">
		</image>
	</g>
</g>
<g id="Ebene_2">
	<rect x="9.6" y="78.5" class="st3" width="235.6" height="46.9"/>
	<rect x="23.7" y="125.4" class="st3" width="207.5" height="128.5"/>
	<line class="st4" x1="127.4" y1="253.9" x2="127.4" y2="78.5"/>
	<path class="st5" d="M124.8,71.7c-4.3,6.4-32.2,3.7-50.3-12.6c-7.6-6.8-20.8-21.1-15.7-34.3C62.4,15.3,75,10.9,90,17
		c10,4.1,17.7,14.7,32.3,38.5c1.9,3.2,5.4,9.1,3.3,14.6C125.4,70.7,125,71.3,124.8,71.7z"/>
	<path class="st5" d="M132.9,70.9c6.7,7.9,25.2,1.2,31.6-1.1c5.6-2,34.9-12.7,33.7-29.8c-0.8-10.6-6.1-20.5-24.4-21.3
		c-20.8-0.9-34,20.7-36.1,24.3C136,45.7,126.2,62.9,132.9,70.9z"/>
</g>
</svg>
